<svg version="1.1" xmlns="http://www.w3.org/2000/svg" viewBox="0 0 2015.25 1367.25" width="2015.25" height="1367.25">
  <!-- svg-source:excalidraw -->
  
  <defs>
    <style>
      @font-face {
        font-family: "Virgil";
        src: url("https://excalidraw.com/Virgil.woff2");
      }
      @font-face {
        font-family: "Cascadia";
        src: url("https://excalidraw.com/Cascadia.woff2");
      }
    </style>
  </defs>
  <g stroke-linecap="round" transform="translate(1354.25 10) rotate(0 325.5 145.5)"><path d="M-0.13 -0.44 C175.34 -2.8, 351.06 -2.96, 651.03 0.42 M0.23 0.29 C205.72 2.53, 411.91 2.16, 650.83 -0.25 M649.99 1.18 C653 83.52, 650.96 166.67, 652.38 291.92 M651.52 -0.21 C653.84 83.16, 652.63 165.76, 650.6 291.69 M650.33 290.87 C479.67 292.31, 307.54 292.69, 0.07 290.92 M651.25 290.96 C427.02 288.79, 202.62 288.82, -0.13 290.99 M0.21 290.67 C0.41 180.36, -0.18 68.28, 1.25 -0.54 M0.53 291.21 C-0.2 181.32, -0.35 70.35, -0.26 -0.26" stroke="#000000" stroke-width="1" fill="none"></path></g><g transform="translate(1359.25 15) rotate(0 320.5 12.5)"><text x="320.5" y="18" font-family="Virgil, Segoe UI Emoji" font-size="20px" fill="#000000" text-anchor="middle" style="white-space: pre;" direction="ltr">network node</text></g><g stroke-linecap="round" transform="translate(1431.75 352.25) rotate(0 102.5 32.5)"><path d="M1.08 -1.57 C66.9 0.73, 130.64 -0.84, 206.05 -0.41 M-0.24 -0.35 C71.91 1.37, 145.56 0.77, 204.16 -0.08 M206.74 1.19 C203.04 15.05, 206.13 31.03, 205.7 63.36 M204.59 0.25 C205.7 21.68, 205.06 44.97, 205.38 65.41 M204.19 65.77 C137.14 64.83, 66.78 66.97, -1.63 64.7 M204.75 64.12 C124.56 62.96, 43.88 64.5, 0.26 65.28 M-0.85 63.1 C-0.35 50.49, -0.65 35.08, -0.76 -1.36 M-0.17 65.91 C0.23 38.86, 0.11 15.15, -0.3 0.09" stroke="#000000" stroke-width="1" fill="none"></path></g><g transform="translate(1436.75 372.25) rotate(0 97.5 12.5)"><text x="97.5" y="18" font-family="Virgil, Segoe UI Emoji" font-size="20px" fill="#000000" text-anchor="middle" style="white-space: pre;" direction="ltr">Connection</text></g><g stroke-linecap="round" transform="translate(1496.75 471.5) rotate(0 102.5 32.5)"><path d="M0.58 1.43 C57.1 -1, 115.28 0.15, 204.97 -0.75 M0.75 0.82 C62.24 1.75, 125.03 0.37, 205.09 -0.1 M205.33 0.47 C204.38 15.95, 204.96 31.07, 205.87 63.2 M205.14 0.26 C205.79 21.7, 205.79 42.42, 205.81 64.33 M206.11 66.34 C153.73 63.5, 100.64 62.9, -1.33 65.47 M204.52 64.81 C143 65.21, 81.96 64.91, -0.04 65.75 M1.88 64.63 C-0.92 42.83, 1.48 23.88, -0.86 0.64 M0.39 64.76 C-1.07 41.71, -0.86 19.25, 0.38 -0.03" stroke="#000000" stroke-width="1" fill="none"></path></g><g transform="translate(1501.75 491.5) rotate(0 97.5 12.5)"><text x="97.5" y="18" font-family="Virgil, Segoe UI Emoji" font-size="20px" fill="#000000" text-anchor="middle" style="white-space: pre;" direction="ltr">TcpClient</text></g><g stroke-linecap="round" transform="translate(1752.75 354.5) rotate(0 102.5 32.5)"><path d="M-1.03 1.27 C51.78 1.87, 104.86 0.61, 206.78 0.02 M0.82 -0.77 C76.24 0.19, 153.32 0.22, 204.94 0.57 M206.32 -0.17 C205.93 19.97, 203.87 40.9, 205.64 65.09 M204.33 -0.73 C204.25 23, 205.79 45.28, 205.31 65.34 M206.61 64.99 C140.08 64.61, 72.79 64.27, 0.69 64.83 M205.24 65.58 C153.37 63.03, 100.03 63.25, 0.45 64.18 M1.36 65.81 C-0.28 41.33, -1.58 16.94, -0.91 1.63 M-0.84 65.72 C0.59 44.24, 0.31 24.33, 0.73 -0.34" stroke="#000000" stroke-width="1" fill="none"></path></g><g transform="translate(1757.75 374.5) rotate(0 97.5 12.5)"><text x="97.5" y="18" font-family="Virgil, Segoe UI Emoji" font-size="20px" fill="#000000" text-anchor="middle" style="white-space: pre;" direction="ltr">Console</text></g><g stroke-linecap="round" transform="translate(1765.75 461.5) rotate(0 102.5 32.5)"><path d="M0.55 0.61 C63.52 1.81, 126.55 2.64, 204.99 0.43 M0.35 -0.09 C54.61 1.14, 109.12 1.17, 205.58 0.84 M206 -1.83 C206.64 17.27, 206.94 37.95, 205.81 64.39 M204.55 0.82 C204.57 23.64, 205.35 46.19, 205.72 65.66 M206.31 64.39 C142.93 65.06, 81.47 65.02, 0.7 65.43 M205.74 65.23 C131.12 64.39, 55.31 65.01, 0.56 65.23 M0.5 66.29 C-1 52.26, -1.81 34.89, 1.39 0.28 M-0.23 65.68 C1.09 49.74, -0.14 36.75, 0.06 -0.9" stroke="#000000" stroke-width="1" fill="none"></path></g><g transform="translate(1770.75 481.5) rotate(0 97.5 12.5)"><text x="97.5" y="18" font-family="Virgil, Segoe UI Emoji" font-size="20px" fill="#000000" text-anchor="middle" style="white-space: pre;" direction="ltr">Terminal</text></g><g stroke-linecap="round"><g transform="translate(1861.0836031446868 457) rotate(0 -4.8921542164922585 -17.92533385327087)"><path d="M0.05 -1.01 C-1.67 -7, -8.38 -29.57, -9.84 -35.22 M-1.38 1.08 C-2.75 -5.32, -6.14 -30.64, -7.44 -36.93" stroke="#000000" stroke-width="1" fill="none"></path></g><g transform="translate(1861.0836031446868 457) rotate(0 -4.8921542164922585 -17.92533385327087)"><path d="M0.13 -21.66 C-0.33 -25.45, -2.98 -31.11, -7.5 -38.12 M1.5 -20.18 C-1.07 -25.08, -3.47 -30.61, -7.56 -36.39" stroke="#000000" stroke-width="1" fill="none"></path></g><g transform="translate(1861.0836031446868 457) rotate(0 -4.8921542164922585 -17.92533385327087)"><path d="M-12.41 -19.58 C-8.58 -24.09, -6.91 -30.46, -7.5 -38.12 M-11.04 -18.09 C-10.02 -23.54, -8.83 -29.66, -7.56 -36.39" stroke="#000000" stroke-width="1" fill="none"></path></g></g><g stroke-linecap="round"><g transform="translate(1837.703324884319 344) rotate(0 -6.7306638903743305 -17.732245731726294)"><path d="M-0.83 0.28 C-3.19 -5.6, -11.71 -29.99, -13.85 -35.75 M0.93 -0.61 C-1.54 -6.32, -11.92 -28.67, -14.4 -34.6" stroke="#000000" stroke-width="1" fill="none"></path></g><g transform="translate(1837.703324884319 344) rotate(0 -6.7306638903743305 -17.732245731726294)"><path d="M-0.8 -19.73 C-6.63 -23.91, -8.55 -30.06, -14.31 -34.39 M-0.91 -21.69 C-6.02 -25.8, -9.84 -30.81, -14.86 -34" stroke="#000000" stroke-width="1" fill="none"></path></g><g transform="translate(1837.703324884319 344) rotate(0 -6.7306638903743305 -17.732245731726294)"><path d="M-12.66 -14.48 C-14.64 -20.28, -12.73 -28.12, -14.31 -34.39 M-12.77 -16.44 C-14 -22.13, -13.97 -28.85, -14.86 -34" stroke="#000000" stroke-width="1" fill="none"></path></g></g><g stroke-linecap="round"><g transform="translate(1519.4570462620036 347) rotate(0 2.6483130963081294 -20.634106374159416)"><path d="M0.28 -0.49 C1.43 -7.4, 5.35 -34.16, 6.33 -40.78 M-1.04 -1.79 C0.07 -8.63, 4.63 -33.44, 5.76 -39.65" stroke="#000000" stroke-width="1" fill="none"></path></g><g transform="translate(1519.4570462620036 347) rotate(0 2.6483130963081294 -20.634106374159416)"><path d="M8.33 -18.54 C6.88 -23.77, 6.95 -28.89, 4.37 -39.06 M9.89 -19.17 C7.4 -25.9, 5.8 -32.78, 6.42 -39.3" stroke="#000000" stroke-width="1" fill="none"></path></g><g transform="translate(1519.4570462620036 347) rotate(0 2.6483130963081294 -20.634106374159416)"><path d="M-5.26 -21.02 C-3.27 -25.66, 0.22 -30.16, 4.37 -39.06 M-3.7 -21.65 C-1.6 -27.63, 1.37 -33.67, 6.42 -39.3" stroke="#000000" stroke-width="1" fill="none"></path></g></g><g stroke-linecap="round"><g transform="translate(1571.0499493837033 462) rotate(0 -11.649244409959351 -20.604034903636204)"><path d="M-0.6 -0.7 C-4.83 -7.7, -20.85 -36.02, -24.58 -42.76 M1.28 1.55 C-2.63 -5.24, -18.21 -34.19, -22.31 -41.61" stroke="#000000" stroke-width="1" fill="none"></path></g><g transform="translate(1571.0499493837033 462) rotate(0 -11.649244409959351 -20.604034903636204)"><path d="M-5.39 -27.05 C-11.97 -30.24, -15.84 -38.93, -24.26 -40.93 M-5.17 -25.17 C-9.33 -30.38, -14.33 -33.54, -21.41 -40.85" stroke="#000000" stroke-width="1" fill="none"></path></g><g transform="translate(1571.0499493837033 462) rotate(0 -11.649244409959351 -20.604034903636204)"><path d="M-19.88 -19.16 C-21.13 -25.15, -19.72 -36.72, -24.26 -40.93 M-19.66 -17.28 C-20.09 -24.63, -21.31 -29.86, -21.41 -40.85" stroke="#000000" stroke-width="1" fill="none"></path></g></g><g stroke-linecap="round" transform="translate(10 279.25) rotate(0 325.5 145.5)"><path d="M-0.34 0.16 C190.93 0.66, 380.73 1.26, 651.26 -0.69 M-0.22 0.11 C196.6 -1.21, 393.55 -1.23, 651.19 -0.4 M649.65 -0.19 C648.36 93.63, 648.96 187.4, 651.11 291.75 M651.46 -0.6 C652.02 88.53, 651.84 176.65, 650.64 291.11 M651.17 290.4 C449.58 291.36, 249.44 290.47, 0.06 291.73 M650.67 291.36 C497.14 292.57, 343.42 292.88, -0.1 290.63 M0.48 290.6 C-0.3 229.73, 0.08 168.51, -0.47 -0.89 M-0.32 291 C1.75 182.44, 1.7 72.87, 0.23 -0.12" stroke="#000000" stroke-width="1" fill="none"></path></g><g transform="translate(15 284.25) rotate(0 320.5 12.5)"><text x="320.5" y="18" font-family="Virgil, Segoe UI Emoji" font-size="20px" fill="#000000" text-anchor="middle" style="white-space: pre;" direction="ltr">network node</text></g><g stroke-linecap="round" transform="translate(278.5 632.5) rotate(0 102.5 32.5)"><path d="M1.49 0.41 C58.17 1.37, 116.05 -1.9, 205.04 -0.58 M-0.07 0.5 C73.47 -0.05, 146.05 -1.41, 205.21 -0.62 M203.5 -0.88 C203.71 20.01, 204.56 44.15, 205.05 66.09 M204.78 0.62 C204.94 17.41, 204.92 33.61, 205.09 64.6 M204.36 65.54 C144.14 62.18, 80.26 65.26, -1.14 65.38 M204.86 64.18 C128.25 66.53, 51.25 65.83, -0.8 65.56 M1.42 64.85 C1.73 40.27, -0.84 14.82, 1.51 -1.6 M0.01 65.98 C0.23 44.81, 0.59 23.27, 0.25 -0.98" stroke="#000000" stroke-width="1" fill="none"></path></g><g transform="translate(283.5 652.5) rotate(0 97.5 12.5)"><text x="97.5" y="18" font-family="Virgil, Segoe UI Emoji" font-size="20px" fill="#000000" text-anchor="middle" style="white-space: pre;" direction="ltr">Connection</text></g><g stroke-linecap="round"><g transform="translate(372.9256833754485 628.25) rotate(0 -0.91872006712466 -26.875627915104815)"><path d="M-0.65 0.34 C-0.93 -8.49, -1.97 -43.54, -2.04 -52.33 M1.2 -0.52 C0.79 -9.76, -2.61 -45.12, -3.04 -54.1" stroke="#000000" stroke-width="1" fill="none"></path></g><g transform="translate(372.9256833754485 628.25) rotate(0 -0.91872006712466 -26.875627915104815)"><path d="M8.43 -30.08 C5.93 -34.97, 2.94 -41.96, -5.03 -53.62 M7.73 -30.67 C4.83 -35.94, 1.98 -41.08, -2.54 -54.07" stroke="#000000" stroke-width="1" fill="none"></path></g><g transform="translate(372.9256833754485 628.25) rotate(0 -0.91872006712466 -26.875627915104815)"><path d="M-9.66 -28.74 C-7.33 -33.89, -5.46 -41.24, -5.03 -53.62 M-10.36 -29.32 C-9.1 -34.74, -7.78 -40.19, -2.54 -54.07" stroke="#000000" stroke-width="1" fill="none"></path></g></g><g stroke-linecap="round" transform="translate(331.75 738.5) rotate(0 102.5 32.5)"><path d="M0.85 1.09 C80.61 0.03, 160.57 -0.47, 206.02 -1.75 M-0.89 0.28 C47.02 1.7, 94.08 2.16, 204.4 -0.38 M206.29 -1.11 C202.51 17.85, 203.53 34.47, 206.95 65.21 M205.05 0.55 C205.99 16.37, 205.48 31.1, 205.69 65.02 M206.71 64.32 C165.12 64.22, 123.79 62.87, -0.98 63.52 M204.85 65.27 C137.99 63.81, 71.28 62.82, 0.47 64.5 M1.87 65.94 C-0.06 45.11, 1.12 24.51, 0.15 1.17 M0.4 64.47 C-0.94 43.4, -0.02 21.39, 0.93 -0.13" stroke="#000000" stroke-width="1" fill="none"></path></g><g transform="translate(336.75 758.5) rotate(0 97.5 12.5)"><text x="97.5" y="18" font-family="Virgil, Segoe UI Emoji" font-size="20px" fill="#000000" text-anchor="middle" style="white-space: pre;" direction="ltr">TcpServer</text></g><g stroke-linecap="round"><g transform="translate(417.56596005265294 732) rotate(0 -5.676363168556419 -15.983830233681942)"><path d="M-0.64 -1.07 C-2.5 -6.64, -9.75 -27.82, -11.66 -32.95 M1.22 0.99 C-0.75 -4.42, -10.2 -25.62, -12.58 -31.39" stroke="#000000" stroke-width="1" fill="none"></path></g><g transform="translate(417.56596005265294 732) rotate(0 -5.676363168556419 -15.983830233681942)"><path d="M-2.14 -18.56 C-3.67 -22.55, -5.2 -25.53, -12.39 -33.05 M-1.27 -17.85 C-3.75 -21.83, -7.65 -26.35, -12.01 -30.9" stroke="#000000" stroke-width="1" fill="none"></path></g><g transform="translate(417.56596005265294 732) rotate(0 -5.676363168556419 -15.983830233681942)"><path d="M-13.14 -13.83 C-11.85 -18.99, -10.54 -23.19, -12.39 -33.05 M-12.28 -13.13 C-11.31 -18.62, -11.78 -24.6, -12.01 -30.9" stroke="#000000" stroke-width="1" fill="none"></path></g></g><g stroke-linecap="round"><g transform="translate(1495.25 527.2004620003856) rotate(0 -477.4076199110598 108.47038515538009)"><path d="M0.31 -0.54 C-158.73 35.9, -795.7 181.21, -955.13 217.48" stroke="#000000" stroke-width="1.5" fill="none" stroke-dasharray="8 9"></path></g><g transform="translate(1495.25 527.2004620003856) rotate(0 -477.4076199110598 108.47038515538009)"><path d="M-25.79 17.19 C-18.14 11.5, -13 8, 0.86 0.59" stroke="#000000" stroke-width="1.5" fill="none"></path></g><g transform="translate(1495.25 527.2004620003856) rotate(0 -477.4076199110598 108.47038515538009)"><path d="M-30.36 -2.82 C-21.86 -3.96, -15.68 -2.89, 0.86 0.59" stroke="#000000" stroke-width="1.5" fill="none"></path></g><g transform="translate(1495.25 527.2004620003856) rotate(0 -477.4076199110598 108.47038515538009)"><path d="M-930.83 202.67 C-935 204.54, -941.36 208.46, -954.58 218.62" stroke="#000000" stroke-width="1.5" fill="none"></path></g><g transform="translate(1495.25 527.2004620003856) rotate(0 -477.4076199110598 108.47038515538009)"><path d="M-926.27 222.68 C-931.28 219.99, -938.68 219.35, -954.58 218.62" stroke="#000000" stroke-width="1.5" fill="none"></path></g></g><g stroke-linecap="round" transform="translate(1352.75 841.75) rotate(0 325.5 145.5)"><path d="M0.18 -0.08 C173.95 1.14, 348.4 -0.01, 650.89 -0.08 M-0.03 -0.36 C224.62 -0.5, 448.89 -0.72, 651.15 -0.3 M652.13 0.87 C651.03 111.88, 650.78 222.34, 649.92 289.96 M650.49 0.11 C650.65 111.67, 650.77 221.73, 651.33 291.34 M651.11 291.49 C391.37 289.52, 132.57 290.08, -0.71 291.54 M650.67 291.14 C414.63 292.25, 177.94 292.52, -0.07 290.87 M1.07 290.8 C-0.16 190.7, 1.08 89.28, 1.41 -0.29 M0.07 291.54 C-0.44 218.89, -0.41 147, -0.4 0.44" stroke="#000000" stroke-width="1" fill="none"></path></g><g transform="translate(1357.75 846.75) rotate(0 320.5 12.5)"><text x="320.5" y="18" font-family="Virgil, Segoe UI Emoji" font-size="20px" fill="#000000" text-anchor="middle" style="white-space: pre;" direction="ltr">network node</text></g><g stroke-linecap="round" transform="translate(1373.25 1189) rotate(0 102.5 32.5)"><path d="M-0.3 1.53 C58.42 -0.85, 115.58 0, 205.8 -1.68 M0.64 -0.11 C65.56 1.04, 130.49 0.96, 205.75 -0.1 M205.35 -0.01 C205.51 11.64, 204.05 25.74, 206.64 65.21 M204.23 0.65 C203.95 24.88, 205 51.92, 205.98 65.12 M204.21 65.34 C156.67 67.72, 106.19 67.34, 1.13 64.11 M205.18 64.18 C130.41 65.42, 56.35 65.33, 0.43 65.02 M-0.16 66.18 C1.04 51.01, 1.42 34.89, -1.06 0.83 M0.63 64.62 C0.6 43.51, -0.59 23.54, -0.17 -0.88" stroke="#000000" stroke-width="1" fill="none"></path></g><g transform="translate(1378.25 1209) rotate(0 97.5 12.5)"><text x="97.5" y="18" font-family="Virgil, Segoe UI Emoji" font-size="20px" fill="#000000" text-anchor="middle" style="white-space: pre;" direction="ltr">Connection</text></g><g stroke-linecap="round" transform="translate(1336.25 1292.25) rotate(0 102.5 32.5)"><path d="M0.51 -1.04 C59.17 -1.75, 119.62 -3.25, 205.31 -0.11 M0.48 -0.59 C43.53 -0.44, 87.15 0.13, 204.19 0.67 M205.02 -1.92 C203.67 21.87, 206.76 46.73, 206.92 63.63 M204.39 -0.85 C204.95 20.94, 205.48 41.1, 204.37 65.14 M205.28 66.6 C129.29 66.56, 57.87 64.46, 1.11 63.53 M204.65 64.79 C136.24 63.02, 68.23 63.34, -0.64 65.64 M1.51 65.87 C1.94 45.98, -1.01 28.57, 0.47 0.18 M0.66 64.53 C-0.94 41.43, -0.58 15.8, -0.1 -0.68" stroke="#000000" stroke-width="1" fill="none"></path></g><g transform="translate(1341.25 1312.25) rotate(0 97.5 12.5)"><text x="97.5" y="18" font-family="Virgil, Segoe UI Emoji" font-size="20px" fill="#000000" text-anchor="middle" style="white-space: pre;" direction="ltr">TcpClient</text></g><g stroke-linecap="round" transform="translate(1653.25 1180.25) rotate(0 102.5 32.5)"><path d="M-0.24 -0.18 C79.86 -0.62, 158.43 0.95, 203.41 1.28 M0.33 -0.67 C59.71 1.11, 117.11 1.88, 205.52 0.16 M203.56 -1.39 C206.65 19.66, 206.93 37.54, 205.3 63.46 M205.45 0.45 C205.59 23.84, 203.98 47.58, 205.62 64.56 M203.42 66.21 C140.68 65.75, 75.21 65.16, 0.62 65.35 M204.84 64.7 C162.78 64.59, 119.07 65.21, -0.12 64.93 M1.88 64.62 C-1.55 42.49, -0.02 18.48, 1.43 1.26 M-0.53 65.59 C-0.6 47.09, -0.53 30.25, -0.01 -0.14" stroke="#000000" stroke-width="1" fill="none"></path></g><g transform="translate(1658.25 1200.25) rotate(0 97.5 12.5)"><text x="97.5" y="18" font-family="Virgil, Segoe UI Emoji" font-size="20px" fill="#000000" text-anchor="middle" style="white-space: pre;" direction="ltr">Console</text></g><g stroke-linecap="round" transform="translate(1638.25 1282.25) rotate(0 102.5 32.5)"><path d="M0.8 -1.68 C49.88 0.07, 97.54 1.46, 204.78 0.96 M0.75 -0.1 C47.2 2.04, 96.54 1.53, 204.99 0.01 M206.64 0.21 C206.45 11.88, 204.84 24.96, 206.3 63.78 M205.98 0.12 C204.66 14.1, 205.91 27.48, 205.19 65.16 M206.13 64.11 C126.26 64.77, 45.92 66.59, -1.64 64.3 M205.43 65.02 C147.69 65.02, 91.54 64.31, 0.53 65.67 M-1.06 65.83 C-0.14 42.86, 0.82 21.62, -0.76 1.32 M-0.17 64.12 C0.24 47.84, 0.34 31.91, 0.47 -0.37" stroke="#000000" stroke-width="1" fill="none"></path></g><g transform="translate(1643.25 1302.25) rotate(0 97.5 12.5)"><text x="97.5" y="18" font-family="Virgil, Segoe UI Emoji" font-size="20px" fill="#000000" text-anchor="middle" style="white-space: pre;" direction="ltr">Terminal</text></g><g stroke-linecap="round"><g transform="translate(1743.4758895932787 1277.75) rotate(0 -0.3289761653356891 -15.930909007415266)"><path d="M-1.13 0.21 C-1.05 -5.23, -0.01 -26.84, 0.4 -32.07 M0.47 -0.73 C0.41 -6.1, -0.68 -26.23, -0.59 -31.1" stroke="#000000" stroke-width="1" fill="none"></path></g><g transform="translate(1743.4758895932787 1277.75) rotate(0 -0.3289761653356891 -15.930909007415266)"><path d="M5.32 -16.75 C1.97 -19.79, 1.52 -24.24, -1.61 -30.52 M4.34 -16.07 C4.1 -19.78, 2.38 -23.15, -1.33 -31.66" stroke="#000000" stroke-width="1" fill="none"></path></g><g transform="translate(1743.4758895932787 1277.75) rotate(0 -0.3289761653356891 -15.930909007415266)"><path d="M-5.28 -16.51 C-5.56 -19.51, -2.93 -24.04, -1.61 -30.52 M-6.26 -15.83 C-4.11 -19.58, -3.45 -23.01, -1.33 -31.66" stroke="#000000" stroke-width="1" fill="none"></path></g></g><g stroke-linecap="round"><g transform="translate(1757.0483661169083 1169.75) rotate(0 -1.2502894368362831 -14.944758586874173)"><path d="M0.21 -0.08 C-0.33 -4.58, -2.38 -23.43, -2.71 -28.14 M-1.14 -1.16 C-1.37 -5.89, -0.31 -24.95, -0.56 -29.81" stroke="#000000" stroke-width="1" fill="none"></path></g><g transform="translate(1757.0483661169083 1169.75) rotate(0 -1.2502894368362831 -14.944758586874173)"><path d="M4.21 -17.42 C3.79 -21.02, 1.86 -26.51, -0.02 -30.9 M4.85 -15.71 C2.57 -21.44, 0.59 -27.39, -1.08 -30.32" stroke="#000000" stroke-width="1" fill="none"></path></g><g transform="translate(1757.0483661169083 1169.75) rotate(0 -1.2502894368362831 -14.944758586874173)"><path d="M-5.73 -17.5 C-2.72 -21.08, -1.23 -26.55, -0.02 -30.9 M-5.09 -15.79 C-3.54 -21.4, -1.71 -27.32, -1.08 -30.32" stroke="#000000" stroke-width="1" fill="none"></path></g></g><g stroke-linecap="round"><g transform="translate(1467.7355444167517 1183.75) rotate(0 7.210655347600266 -22.08387886779383)"><path d="M-0.08 -1.07 C2.78 -8.63, 13.35 -37.7, 16 -45.15 M-1.57 0.98 C1.3 -6.41, 12.68 -36.04, 15.5 -43.69" stroke="#000000" stroke-width="1" fill="none"></path></g><g transform="translate(1467.7355444167517 1183.75) rotate(0 7.210655347600266 -22.08387886779383)"><path d="M13.43 -18.52 C14.98 -23.76, 13.97 -28.97, 14 -42 M15.79 -19.78 C15.51 -26.81, 14.63 -34.41, 14.8 -42.87" stroke="#000000" stroke-width="1" fill="none"></path></g><g transform="translate(1467.7355444167517 1183.75) rotate(0 7.210655347600266 -22.08387886779383)"><path d="M-1.76 -24.26 C2.93 -28.3, 5.04 -32.34, 14 -42 M0.6 -25.51 C4.66 -31, 8.18 -36.94, 14.8 -42.87" stroke="#000000" stroke-width="1" fill="none"></path></g></g><g stroke-linecap="round"><g transform="translate(1449.2373690008258 1282.75) rotate(0 3.654074132628921 -13.139759260853793)"><path d="M-1.07 0.86 C0.29 -3.36, 6.91 -20.95, 8.38 -25.35 M0.57 0.26 C1.74 -4.29, 5.74 -22.48, 7.35 -27.14" stroke="#000000" stroke-width="1" fill="none"></path></g><g transform="translate(1449.2373690008258 1282.75) rotate(0 3.654074132628921 -13.139759260853793)"><path d="M9.44 -13.67 C8.85 -18.74, 8.28 -23.19, 8.51 -27.28 M8.58 -13.51 C8.13 -17, 7.4 -19.66, 7.91 -27.07" stroke="#000000" stroke-width="1" fill="none"></path></g><g transform="translate(1449.2373690008258 1282.75) rotate(0 3.654074132628921 -13.139759260853793)"><path d="M0.41 -16.15 C2.69 -20.35, 4.98 -24.02, 8.51 -27.28 M-0.44 -15.99 C1.01 -19.01, 2.16 -21.16, 7.91 -27.07" stroke="#000000" stroke-width="1" fill="none"></path></g></g><g stroke-linecap="round"><g transform="translate(481.6715321026089 807) rotate(0 423.9058182321816 263.0341303283859)"><path d="M0.83 0.75 C142.01 88.49, 705.92 438.01, 846.99 525.32" stroke="#000000" stroke-width="1.5" fill="none" stroke-dasharray="8 9"></path></g><g transform="translate(481.6715321026089 807) rotate(0 423.9058182321816 263.0341303283859)"><path d="M31.44 5.9 C23.34 4.76, 13.7 5.32, 1.66 -0.52" stroke="#000000" stroke-width="1.5" fill="none"></path></g><g transform="translate(481.6715321026089 807) rotate(0 423.9058182321816 263.0341303283859)"><path d="M20.62 23.34 C15.81 17.1, 9.29 12.63, 1.66 -0.52" stroke="#000000" stroke-width="1.5" fill="none"></path></g><g transform="translate(481.6715321026089 807) rotate(0 423.9058182321816 263.0341303283859)"><path d="M818.86 518.21 C827.58 520.2, 834.86 524.29, 847.82 524.06" stroke="#000000" stroke-width="1.5" fill="none"></path></g><g transform="translate(481.6715321026089 807) rotate(0 423.9058182321816 263.0341303283859)"><path d="M829.67 500.77 C835.1 507.86, 839.28 516.98, 847.82 524.06" stroke="#000000" stroke-width="1.5" fill="none"></path></g></g></svg>